<?xml version="1.0" standalone="no"?>
<!DOCTYPE svg PUBLIC "-//W3C//DTD SVG 20010904//EN"
 "http://www.w3.org/TR/2001/REC-SVG-20010904/DTD/svg10.dtd">
<svg version="1.0" xmlns="http://www.w3.org/2000/svg"
 width="206.000000pt" height="208.000000pt" viewBox="0 0 206.000000 208.000000"
 preserveAspectRatio="xMidYMid meet">

<g transform="translate(0.000000,208.000000) scale(0.100000,-0.100000)"
fill="#1674ed" stroke="none">
<path d="M966 1908 c-50 -68 -51 -81 -9 -132 28 -33 56 -86 50 -92 -2 -2 -16
14 -31 36 -15 24 -34 40 -46 40 -31 0 -32 -17 -1 -47 31 -31 48 -78 56 -153 4
-33 3 -40 -4 -25 -5 11 -12 32 -15 47 -3 14 -26 50 -50 78 -25 29 -49 68 -53
89 l-9 36 -22 -42 c-30 -58 -28 -79 13 -124 19 -22 35 -44 35 -49 0 -22 -30
-8 -56 25 -26 35 -58 44 -98 29 -17 -6 -191 -219 -225 -274 -40 -67 -18 -132
52 -150 51 -13 96 -30 101 -39 7 -12 -74 -12 -97 0 -12 7 -39 27 -60 45 -45
41 -75 43 -110 6 -33 -34 -34 -42 -4 -42 12 0 30 -7 39 -14 16 -11 10 -13 -38
-13 -48 0 -60 -4 -75 -24 -23 -30 -23 -29 2 -59 17 -20 29 -24 76 -24 47 0 52
-2 37 -13 -10 -7 -28 -13 -41 -13 -31 0 -29 -10 10 -48 29 -28 38 -31 58 -23
14 5 31 16 39 25 31 39 74 60 121 61 66 1 48 -18 -37 -41 -54 -14 -68 -23 -81
-47 -25 -49 -11 -90 66 -191 113 -148 171 -206 208 -206 25 0 36 7 52 34 23
36 47 51 56 36 8 -13 -7 -40 -39 -69 -31 -29 -33 -64 -6 -109 22 -36 40 -35
40 3 0 15 18 45 45 75 25 28 47 63 51 78 3 15 9 36 14 47 8 19 9 18 9 -4 2
-48 -32 -142 -61 -171 -32 -33 -33 -36 -13 -44 24 -9 43 3 66 41 12 19 23 32
26 29 7 -6 -16 -47 -43 -76 -12 -14 -27 -37 -33 -52 -10 -27 5 -57 68 -137
l18 -24 47 63 c25 35 46 69 46 75 0 7 -18 40 -40 74 -22 34 -40 67 -40 74 0 7
8 -1 18 -18 29 -47 47 -58 71 -45 20 10 20 12 -12 44 -36 36 -57 93 -56 152
l0 39 13 -47 c8 -30 28 -64 54 -92 38 -42 46 -58 54 -111 3 -17 7 -14 26 16
32 52 29 98 -8 131 -27 24 -41 68 -22 68 12 0 48 -41 55 -62 6 -18 49 -24 81
-12 21 8 215 247 239 294 19 38 15 83 -9 111 -8 9 -44 24 -79 34 -76 20 -87
30 -44 39 37 7 82 -12 127 -53 52 -46 69 -48 108 -10 36 35 36 49 0 49 -13 0
-29 6 -35 14 -10 11 -4 13 32 9 38 -5 49 -1 76 24 l33 28 -23 28 c-20 26 -27
28 -75 25 -30 -1 -54 0 -54 3 0 8 48 29 66 29 11 0 8 9 -12 35 -35 46 -60 45
-120 -5 -54 -45 -75 -53 -125 -48 l-34 3 30 16 c17 9 46 19 66 23 41 7 74 38
84 78 9 35 -11 69 -118 206 -99 126 -128 152 -172 152 -27 0 -37 -6 -54 -35
-21 -36 -51 -47 -51 -19 0 9 14 29 30 44 37 34 40 79 8 130 l-22 35 -8 -40
c-5 -24 -23 -54 -45 -77 -19 -20 -44 -60 -55 -90 l-19 -53 4 51 c5 62 41 141
69 150 18 5 19 8 5 21 -20 21 -49 9 -71 -28 -10 -17 -20 -28 -23 -26 -6 7 22
61 40 76 8 6 20 25 27 41 11 26 9 34 -14 72 -27 45 -61 88 -69 88 -3 0 -26
-28 -51 -62z m36 -115 c17 -15 19 -15 39 3 12 10 20 15 17 9 -30 -67 -40 -87
-42 -84 -10 11 -43 89 -38 89 3 0 14 -7 24 -17z m37 -316 c6 -8 4 -30 -9 -67
-16 -46 -19 -50 -20 -25 0 17 -7 41 -16 53 -15 21 -15 25 0 41 9 10 17 37 17
62 l1 44 8 -48 c5 -27 13 -54 19 -60z m-171 33 c34 -16 62 -34 62 -40 0 -6
-11 -5 -30 5 -38 20 -86 19 -94 -1 -13 -34 -7 -44 23 -38 40 8 91 -24 129 -81
37 -55 46 -102 32 -155 -17 -64 -39 -80 -112 -80 -75 0 -101 12 -142 63 -25
31 -31 48 -31 87 0 27 -3 52 -7 56 -12 12 -58 -25 -58 -47 0 -22 34 -94 50
-104 5 -3 10 -11 10 -17 0 -24 -59 46 -80 94 -31 72 -36 138 -15 194 l17 46
29 -28 c15 -15 36 -43 45 -63 78 -170 93 -193 154 -230 19 -11 45 -21 58 -21
19 0 7 18 -78 117 -54 64 -97 119 -94 122 4 4 52 -42 108 -102 55 -59 104
-107 109 -107 19 0 4 61 -25 101 -41 56 -54 67 -166 131 -100 56 -128 80 -117
98 25 40 139 40 223 0z m491 19 c17 -6 31 -17 31 -24 0 -20 -48 -56 -125 -95
-90 -45 -181 -133 -190 -184 -4 -20 -4 -40 0 -44 4 -4 56 45 116 108 59 63
108 111 109 105 0 -5 -43 -60 -95 -122 -52 -62 -95 -114 -95 -117 0 -13 36 -4
75 18 48 29 76 68 132 186 22 47 52 96 66 109 l27 24 16 -39 c33 -79 13 -194
-47 -267 -36 -44 -51 -43 -20 1 36 51 44 82 26 108 -25 38 -74 30 -54 -8 14
-26 -11 -96 -47 -132 -35 -34 -115 -52 -171 -37 -36 10 -44 17 -59 56 -11 30
-15 60 -11 91 9 85 101 182 160 170 26 -5 28 -4 25 22 -2 22 -9 28 -35 30 -17
2 -47 -4 -65 -13 l-33 -16 30 25 c58 50 163 70 234 45z m-327 -389 c5 -17 19
-35 30 -41 20 -11 20 -11 -2 -26 -12 -8 -26 -27 -32 -42 -10 -23 -12 -24 -16
-6 -2 11 -13 30 -25 43 l-21 22 22 16 c12 8 22 26 22 40 0 33 9 30 22 -6z
m-407 -44 c17 -12 17 -13 -6 -19 -13 -3 -55 -2 -94 2 -62 6 -66 8 -35 14 19 4
49 8 65 10 17 2 35 5 41 6 5 0 18 -5 29 -13z m890 -4 l40 -8 -62 -7 c-34 -4
-70 -4 -79 0 -15 6 -15 7 1 19 10 8 28 11 39 9 12 -3 39 -9 61 -13z m-564 -45
c45 -35 59 -147 24 -202 -49 -77 -107 -120 -150 -109 -27 7 -32 -4 -15 -37 14
-24 46 -24 94 1 l39 19 -23 -24 c-29 -31 -118 -65 -171 -65 -45 0 -109 23
-109 40 0 18 38 46 120 90 41 22 92 54 113 71 48 40 89 110 85 146 -3 26 -7
23 -90 -63 -47 -49 -95 -100 -106 -114 -11 -14 -23 -22 -26 -19 -3 3 31 50 77
104 103 122 111 134 104 142 -12 11 -88 -30 -118 -65 -17 -19 -52 -80 -79
-136 -49 -102 -83 -148 -99 -130 -14 15 -31 75 -31 109 0 50 27 128 60 173 41
57 57 53 20 -5 -35 -55 -37 -76 -9 -104 30 -30 44 -19 44 38 0 39 6 57 29 87
16 21 43 44 60 52 39 17 136 18 157 1z m294 -1 c56 -24 112 -129 85 -161 -6
-8 -9 -19 -5 -25 11 -18 44 -10 61 15 16 25 16 28 -15 88 -32 61 -32 61 -5 37
62 -59 90 -161 68 -249 -8 -30 -17 -57 -20 -60 -12 -12 -66 60 -106 142 -53
108 -86 151 -140 178 -78 40 -70 17 37 -109 58 -68 105 -126 105 -130 0 -4
-53 46 -117 111 -64 64 -118 117 -120 117 -1 0 -3 -13 -3 -28 0 -35 51 -114
94 -146 17 -13 60 -38 96 -56 132 -66 163 -110 93 -129 -76 -22 -173 -2 -228
44 -16 15 -23 24 -15 21 8 -2 32 -10 52 -17 46 -15 68 -7 68 26 0 22 -3 25
-25 19 -54 -13 -152 86 -162 166 -8 56 5 109 32 136 20 20 34 24 80 24 31 0
71 -6 90 -14z m-204 -313 c7 -12 8 -27 3 -35 -5 -7 -14 -35 -20 -63 l-12 -50
-1 46 c0 25 -7 54 -15 64 -11 15 -11 22 0 44 8 14 14 42 15 61 l1 35 9 -40 c5
-22 14 -50 20 -62z m14 -361 c-2 -2 -12 2 -24 10 -16 10 -23 10 -33 0 -24 -24
-26 -11 -5 27 l21 39 22 -36 c13 -20 21 -38 19 -40z"/>
</g>
</svg>
