<?xml version="1.0" encoding="utf-8"?>
<!-- Uploaded to: SVG Repo, www.svgrepo.com, Generator: SVG Repo Mixer Tools -->
<svg fill="#000000" version="1.1" id="Layer_1" xmlns="http://www.w3.org/2000/svg" xmlns:xlink="http://www.w3.org/1999/xlink" 
	 width="800px" height="800px" viewBox="0 0 256 253" enable-background="new 0 0 256 253" xml:space="preserve">
<path d="M127.913,215.746c26.374,0.26,47.498-21.602,47.585-47.412c0.26-26.374-20.951-47.412-47.412-47.585
	s-47.498,21.602-47.585,47.412C80.241,194.534,102.104,215.573,127.913,215.746z M146.826,149.335c4.685,0.26,8.112,3.6,7.938,8.285
	c-0.26,4.685-3.6,8.112-8.285,7.938c-4.685-0.26-8.112-3.6-7.938-8.285C138.714,152.588,142.098,149.162,146.826,149.335z
	 M128.087,202.82c-11.538-0.087-21.862-6.81-27.111-18.002c-0.911-2.212,0.26-4.685,2.386-5.639c2.212-0.911,4.685,0.26,6.29,2.603
	c3.427,7.374,10.627,12.189,18.739,12.363s15.139-4.598,18.522-12.102c1.215-2.473,3.947-3.34,5.899-2.299
	c2.473,1.215,3.514,3.427,2.299,5.899C150.426,196.096,139.625,203.036,128.087,202.82z M110.736,149.335
	c4.685,0.26,8.112,3.6,7.938,8.285c-0.26,4.685-3.6,8.112-8.285,7.938c-4.077-0.087-8.112-3.6-7.938-8.285
	C102.537,153.196,106.051,149.162,110.736,149.335z M2,69c0,13.678,9.625,25.302,22,29.576V233H2v18h252v-18h-22V98.554
	c12.89-3.945,21.699-15.396,22-29.554v-8H2V69z M65.29,68.346c0,6.477,6.755,31.47,31.727,31.47
	c21.689,0,31.202-19.615,31.202-31.47c0,11.052,7.41,31.447,31.464,31.447c21.733,0,31.363-20.999,31.363-31.447
	c0,14.425,9.726,26.416,22.954,30.154V233H42V98.594C55.402,94.966,65.29,82.895,65.29,68.346z M254,54H2l32-32V2h189v20h-0.168
	L254,54z"/>
</svg>